<?xml version="1.0" encoding="utf-8"?>
<!-- Generator: Adobe Illustrator 22.1.0, SVG Export Plug-In . SVG Version: 6.00 Build 0)  -->
<svg version="1.1" id="图层_1" xmlns="http://www.w3.org/2000/svg" xmlns:xlink="http://www.w3.org/1999/xlink" x="0px" y="0px"
	 viewBox="0 0 471.9 93.9" style="enable-background:new 0 0 471.9 93.9;" xml:space="preserve">
<style type="text/css">
	.st0{fill:#F04D98;}
	.st1{fill:#353535;}
	.st2{fill:#45A8E0;}
	.st3{opacity:0.8;fill:#BC2076;}
	.st4{fill:#F8D14A;}
	.st5{fill:#DBAE31;}
</style>
<path class="st0" d="M57.9,71c0,2.2-1.8,4-4,4h-35c-2.2,0-4-1.8-4-4v-21c0-2.2,1.8-4,4-4h35c2.2,0,4,1.8,4,4V71z"/>
<g>
	<path class="st1" d="M457.2,68.2h-5.9v-54h5.9V68.2z"/>
	<path class="st1" d="M458.2,69.2h-7.9v-56h7.9V69.2z M452.3,67.2h3.9v-52h-3.9V67.2z"/>
</g>
<g>
	<path class="st1" d="M395.7,67.2h-6v-5.9c-3.9,4.6-8.5,6.9-13.8,6.9c-2.8,0-5.4-0.7-7.7-2.2c-2.3-1.5-4-3.5-5.2-6
		c-1.2-2.6-1.7-6.5-1.7-11.8V28h5.9v18.7c0,4.3,0.2,7.3,0.6,8.8c0.4,1.6,1,2.9,1.8,4c0.8,1.1,1.8,1.9,3,2.4c1.2,0.5,2.7,0.8,4.5,0.8
		c1.8,0,3.5-0.4,5.1-1.3c1.7-0.9,3.1-2.1,4.3-3.6c1.2-1.5,2-3.2,2.5-4.9c0.5-1.7,0.7-5.2,0.7-10.4V28h6V67.2z"/>
	<path class="st1" d="M375.9,69.2c-3,0-5.8-0.8-8.2-2.4c-2.5-1.6-4.3-3.7-5.6-6.5c-1.2-2.7-1.8-6.7-1.8-12.3V27h7.9v19.7
		c0,4.2,0.2,7.1,0.6,8.6c0.4,1.4,0.9,2.6,1.6,3.6c0.7,0.9,1.5,1.6,2.6,2.1c1.1,0.5,2.5,0.7,4.1,0.7c1.6,0,3.2-0.4,4.7-1.2
		c1.5-0.8,2.9-1.9,4-3.3c1.1-1.4,1.9-2.9,2.3-4.5c0.4-1.6,0.7-5,0.7-10.1V27h8v41.2h-8v-4.4C385.1,67.4,380.8,69.2,375.9,69.2z
		 M362.3,29v19.2c0,5.2,0.6,9,1.6,11.4c1.1,2.4,2.7,4.3,4.8,5.6c2.1,1.4,4.5,2,7.2,2c5.1,0,9.3-2.1,13.1-6.6l1.8-2.1v7.6h4V29h-4
		v13.5c0,5.3-0.2,8.8-0.7,10.6c-0.5,1.9-1.4,3.6-2.7,5.3c-1.3,1.6-2.8,2.9-4.7,3.9c-1.8,0.9-3.7,1.4-5.6,1.4c-1.9,0-3.5-0.3-4.9-0.9
		c-1.4-0.6-2.5-1.5-3.4-2.7c-0.9-1.2-1.5-2.6-2-4.3c-0.4-1.7-0.6-4.6-0.6-9.1V29H362.3z"/>
</g>
<path class="st1" d="M203.9,27v4.3c-4-3.6-7.8-5.4-12.8-5.4c-5.8,0-10.5,2.1-14.7,6.2c-4.2,4.1-6.2,9.1-6.1,14.9
	c-0.1,5.5,2,10.4,6,14.5c4,4.1,9.1,6.1,15,6.1c3,0,5.9-0.6,8.6-1.7c2-0.8,3.8-1.9,5.3-3.3c-0.1,2.8-0.6,4.9-1.3,6.3
	c-0.9,1.7-2.4,3.1-4.5,4.2c-2.2,1.1-4.7,1.6-7.5,1.6c-6.1,0-10.4-1.9-13-6.5l-0.3-0.1h-8.4l0.5,0.9c3.6,9,10.8,13.4,21.4,13.4
	c3.1,0,6-0.6,8.6-1.5c2.6-0.9,4.9-2.4,6.8-4.2c1.9-1.8,2.7-4.1,3.6-6.8c0.9-2.6,0.7-6.5,0.7-11.9V27H203.9z M205.5,46.9
	c0,3.8-1.2,6.9-3.8,9.3c-2.5,2.5-5.7,3.6-9.8,3.6c-4,0-7.2-1.2-9.8-3.7c-2.6-2.5-3.8-5.4-3.8-9c0-3.6,1.3-6.7,4-9.4
	c2.7-2.7,5.9-4.1,9.9-4.1c3.7,0,6.8,1.2,9.4,3.7C204.2,39.9,205.5,43,205.5,46.9z"/>
<path class="st1" d="M143.8,29.8c-4.4-3-8.1-4-12.8-4c-6,0-11.1,2.1-15.3,6.4c-4.2,4.2-6.3,9.4-6.3,15.3c0,5.9,2.1,11.1,6.2,15.4
	c4.1,4.3,8.9,6.5,14.7,6.5c5.1,0,9.4-1.9,13.4-5.6V70h8c0,0,0-22.5,0-24.8c0-4.1-2.1-8.8-3-10.1c-0.8-1.2-2.1-2.6-2.9-3.4
	C145.1,30.8,144.3,30.1,143.8,29.8z M131.2,61.7c-3.8,0-6.9-1.4-9.6-4.2c-2.7-2.8-4-6.1-4-9.9c0-3.9,1.3-7.1,4-9.9
	c2.7-2.8,5.8-4.2,9.7-4.2c3.9,0,7,1.3,9.7,4.1c2.7,2.7,4,6,4,10.1c0,4.1-1.3,7.3-4,10.1C138,60.4,134.9,61.7,131.2,61.7z"/>
<path class="st2" d="M161.6,12.1c1.3,0,2.4,0.4,3.3,1.3c0.9,0.9,1.3,2,1.3,3.2c0,1.3-0.4,2.4-1.3,3.2c-0.9,0.9-2,1.3-3.2,1.3
	s-2.4-0.5-3.2-1.4c-0.9-0.9-1.3-2-1.3-3.2c0-1.2,0.4-2.3,1.3-3.2C159.2,12.5,160.3,12.1,161.6,12.1z"/>
<rect x="158.6" y="26.9" class="st1" width="6" height="41.2"/>
<rect x="157.6" y="25.9" class="st1" width="8" height="43.3"/>
<rect x="159.6" y="27.9" class="st1" width="4" height="39.2"/>
<path class="st2" d="M161.6,22.2c-1.5,0-2.9-0.6-4-1.7c-1.1-1.1-1.6-2.4-1.6-3.9c0-1.5,0.5-2.8,1.6-3.9c1.1-1.1,2.4-1.7,3.9-1.7
	c1.6,0,2.9,0.5,4,1.6c1.1,1.1,1.6,2.4,1.6,3.9c0,1.5-0.5,2.9-1.6,3.9C164.5,21.7,163.1,22.2,161.6,22.2z"/>
<path class="st2" d="M161.6,13.1c-1,0-1.8,0.3-2.5,1.1c-0.7,0.7-1,1.5-1,2.5c0,1,0.3,1.8,1,2.5c0.7,0.7,1.5,1.1,2.5,1.1
	c1,0,1.8-0.3,2.5-1c0.7-0.7,1-1.5,1-2.5c0-1-0.3-1.8-1-2.5C163.4,13.4,162.6,13.1,161.6,13.1z"/>
<g>
	<path class="st1" d="M311.6,12.1c1.3,0,2.4,0.4,3.3,1.3c0.9,0.9,1.3,2,1.3,3.2c0,1.3-0.4,2.4-1.3,3.2c-0.9,0.9-2,1.3-3.2,1.3
		c-1.3,0-2.4-0.5-3.2-1.4c-0.9-0.9-1.3-2-1.3-3.2c0-1.2,0.4-2.3,1.3-3.2C309.2,12.5,310.3,12.1,311.6,12.1z"/>
	<rect x="308.6" y="26.9" class="st1" width="6" height="41.2"/>
	<rect x="307.6" y="25.9" class="st1" width="8" height="43.3"/>
	<rect x="309.6" y="27.9" class="st1" width="4" height="39.2"/>
	<path class="st1" d="M311.6,22.2c-1.5,0-2.9-0.6-4-1.7c-1.1-1.1-1.6-2.4-1.6-3.9c0-1.5,0.5-2.8,1.6-3.9c1.1-1.1,2.4-1.7,3.9-1.7
		c1.6,0,2.9,0.5,4,1.6c1.1,1.1,1.6,2.4,1.6,3.9c0,1.5-0.5,2.9-1.6,3.9C314.5,21.7,313.1,22.2,311.6,22.2z"/>
	<path class="st1" d="M311.6,13.1c-1,0-1.8,0.3-2.5,1.1c-0.7,0.7-1,1.5-1,2.5c0,1,0.3,1.8,1,2.5c0.7,0.7,1.5,1.1,2.5,1.1
		c1,0,1.8-0.3,2.5-1c0.7-0.7,1-1.5,1-2.5c0-1-0.3-1.8-1-2.5C313.4,13.4,312.6,13.1,311.6,13.1z"/>
</g>
<path class="st1" d="M253.3,32.2c-4.1-4.3-9.2-6.4-15.2-6.4c-6,0-11.1,2.2-15.2,6.4c-4.1,4.3-6.2,9.4-6.2,15.4
	c0,6,2.1,11.1,6.2,15.3c4.1,4.2,9.2,6.4,15.3,6.4c6,0,11.1-2.2,15.2-6.4c4.1-4.2,6.1-9.4,6.1-15.3C259.5,41.6,257.4,36.4,253.3,32.2
	z M238.2,61.6c-3.9,0-7-1.3-9.6-4c-2.6-2.7-3.8-5.9-3.8-9.8c0-3.9,1.3-7.2,4-10c2.7-2.8,5.7-4.2,9.4-4.2c3.7,0,6.7,1.4,9.4,4.2
	c2.7,2.8,4,6.1,4,10c0,3.9-1.3,7.1-3.9,9.8C245,60.3,241.9,61.6,238.2,61.6z"/>
<g>
	<g>
		<path class="st1" d="M300.4,29l-17.9,40.5h-1.4L263,29h6.3l12.5,28.4L294.2,29H300.4z"/>
		<g>
			<g>
				<path class="st1" d="M293.5,28l-11.8,26.9L269.9,28h-8.5l19,42.5h2.7L302,28H293.5z M281.9,68.5h-0.1L264.5,30h4.1l13.1,29.9
					L294.8,30h4.1L281.9,68.5z"/>
			</g>
		</g>
	</g>
</g>
<g>
	<g>
		<path class="st1" d="M328.8,56.6c0,1.4,0.3,2.6,0.8,3.6c0.5,1,1.1,1.8,1.9,2.5c0.8,0.6,1.8,1.1,2.9,1.4c1.1,0.3,2.3,0.4,3.6,0.4
			c1.1,0,2.2-0.1,3.3-0.3c1.2-0.2,2.3-0.5,3.2-1c1-0.5,1.8-1.1,2.4-1.9c0.6-0.8,1-1.8,1-3.1c0-1.1-0.3-2.1-1-2.9
			c-0.7-0.8-1.6-1.5-2.7-2.1c-1.1-0.6-2.4-1.1-3.8-1.6c-1.4-0.5-2.9-1-4.4-1.5c-1.5-0.5-2.9-1.1-4.4-1.7c-1.4-0.6-2.7-1.4-3.8-2.2
			c-1.1-0.9-2-1.9-2.7-3.1c-0.7-1.2-1-2.6-1-4.3c0-1.8,0.4-3.3,1.1-4.7c0.8-1.4,1.8-2.5,3.1-3.4c1.3-0.9,2.8-1.6,4.4-2.1
			c1.7-0.5,3.4-0.7,5.2-0.7c2,0,3.9,0.2,5.7,0.7c1.7,0.5,3.3,1.2,4.6,2.2c1.3,1,2.4,2.2,3.1,3.6c0.8,1.4,1.2,3.1,1.3,5h-6
			c-0.1-1.1-0.4-2-0.9-2.8c-0.5-0.8-1.1-1.4-1.9-2c-0.8-0.5-1.7-0.9-2.7-1.2c-1-0.2-2-0.4-3.1-0.4c-1.3,0-2.4,0.2-3.4,0.5
			c-1,0.3-1.8,0.7-2.5,1.3c-0.7,0.5-1.2,1.2-1.5,1.9c-0.3,0.7-0.5,1.5-0.5,2.2c0,1,0.3,1.9,1,2.7c0.7,0.8,1.6,1.4,2.7,2
			c1.1,0.6,2.4,1.2,3.8,1.7c1.4,0.5,2.9,1,4.4,1.6c1.5,0.5,2.9,1.1,4.4,1.8c1.4,0.6,2.7,1.4,3.8,2.2c1.1,0.8,2,1.8,2.7,2.9
			c0.7,1.1,1,2.4,1,3.9c0,2.2-0.4,4-1.3,5.5c-0.9,1.5-2,2.8-3.5,3.7c-1.5,1-3.1,1.7-5.1,2.1c-1.9,0.4-3.9,0.7-6,0.7
			c-2,0-4-0.3-5.8-0.8c-1.8-0.5-3.4-1.4-4.8-2.4c-1.4-1.1-2.5-2.4-3.3-4.1c-0.8-1.6-1.3-3.5-1.4-5.7H328.8z"/>
		<path class="st1" d="M338,70.7c-2.1,0-4.2-0.3-6.1-0.9c-1.9-0.6-3.7-1.5-5.1-2.6c-1.5-1.2-2.7-2.7-3.6-4.4
			c-0.9-1.8-1.4-3.8-1.5-6.2l0-1.1h8.1l0,1c0,1.3,0.2,2.4,0.7,3.2c0.4,0.9,0.9,1.5,1.6,2.1c0.7,0.5,1.5,1,2.5,1.2
			c1.8,0.5,4,0.5,6.5,0.1c1.1-0.2,2.1-0.5,2.9-0.9c0.8-0.4,1.5-1,2.1-1.6c0.5-0.6,0.7-1.4,0.7-2.5c0-0.9-0.3-1.6-0.8-2.2
			c-0.6-0.7-1.4-1.3-2.4-1.8c-1.1-0.6-2.3-1.1-3.7-1.6c-1.4-0.5-2.9-1-4.4-1.5c-1.5-0.5-3-1.1-4.4-1.7c-1.5-0.7-2.9-1.5-4-2.4
			c-1.2-0.9-2.2-2.1-2.9-3.4c-0.8-1.3-1.2-3-1.2-4.8c0-1.9,0.4-3.7,1.3-5.2c0.8-1.5,2-2.8,3.4-3.8c1.4-1,3-1.8,4.7-2.3
			c1.8-0.5,3.6-0.8,5.5-0.8c2.1,0,4.1,0.3,5.9,0.8c1.9,0.5,3.5,1.3,4.9,2.3c1.4,1.1,2.6,2.4,3.4,3.9c0.9,1.6,1.3,3.4,1.4,5.4l0,1.1
			h-8l-0.1-0.9c-0.1-0.9-0.4-1.7-0.8-2.4c-0.4-0.7-0.9-1.2-1.6-1.6c-0.7-0.4-1.5-0.8-2.3-1C340,34.1,339,34,338,34
			c-1.2,0-2.2,0.1-3.1,0.4c-0.9,0.3-1.6,0.7-2.2,1.1c-0.6,0.4-1,1-1.2,1.5c-0.3,0.6-0.4,1.2-0.4,1.8c0,0.8,0.2,1.4,0.8,2
			c0.6,0.7,1.4,1.3,2.4,1.8c1.1,0.6,2.3,1.1,3.7,1.6c1.4,0.5,2.9,1,4.4,1.6c1.5,0.5,3,1.1,4.4,1.8c1.5,0.7,2.8,1.4,4,2.3
			c1.2,0.9,2.2,2,3,3.2c0.8,1.3,1.2,2.8,1.2,4.5c0,2.3-0.5,4.4-1.4,6c-0.9,1.7-2.2,3-3.8,4.1c-1.5,1-3.4,1.8-5.4,2.3
			C342.2,70.4,340.1,70.7,338,70.7z M323.8,57.6c0.2,1.6,0.6,3,1.2,4.2c0.8,1.5,1.8,2.7,3,3.7c1.3,1,2.8,1.8,4.4,2.3
			c3.5,1,7.7,1,11.3,0.1c1.8-0.4,3.4-1.1,4.7-2c1.3-0.9,2.4-2,3.1-3.4c0.8-1.4,1.2-3,1.2-5c0-1.3-0.3-2.4-0.9-3.4
			c-0.6-1-1.4-1.9-2.4-2.6c-1-0.8-2.3-1.5-3.6-2.1c-1.4-0.6-2.8-1.2-4.3-1.7c-1.5-0.5-2.9-1.1-4.4-1.6c-1.5-0.5-2.8-1.1-3.9-1.7
			c-1.2-0.7-2.2-1.4-3-2.2c-0.9-0.9-1.3-2.1-1.3-3.4c0-0.9,0.2-1.8,0.6-2.7c0.4-0.8,1-1.6,1.8-2.2c0.8-0.6,1.7-1.1,2.8-1.5
			c1.1-0.3,2.3-0.5,3.7-0.5c1.2,0,2.3,0.1,3.4,0.4c1.1,0.3,2.1,0.7,3,1.3c0.9,0.6,1.6,1.4,2.2,2.3c0.4,0.7,0.7,1.4,0.9,2.3h4
			c-0.2-1.3-0.5-2.4-1.1-3.4c-0.7-1.3-1.7-2.4-2.8-3.3c-1.2-0.9-2.6-1.6-4.2-2c-1.6-0.5-3.5-0.7-5.4-0.7c-1.7,0-3.3,0.2-4.9,0.7
			c-1.5,0.5-2.9,1.1-4.1,2c-1.2,0.8-2.1,1.9-2.8,3.1c-0.7,1.2-1,2.6-1,4.2c0,1.5,0.3,2.7,0.9,3.8c0.6,1.1,1.4,2,2.4,2.8
			c1,0.8,2.2,1.5,3.6,2.1c1.4,0.6,2.8,1.2,4.3,1.7c1.5,0.5,2.9,1,4.4,1.5c1.5,0.5,2.8,1.1,3.9,1.7c1.2,0.7,2.2,1.4,3,2.3
			c0.9,1,1.3,2.2,1.3,3.6c0,1.5-0.4,2.7-1.2,3.7c-0.7,0.9-1.7,1.7-2.8,2.2c-1.1,0.5-2.2,0.9-3.5,1.1c-2.8,0.5-5.3,0.4-7.4-0.2
			c-1.2-0.3-2.3-0.9-3.2-1.6c-0.9-0.7-1.7-1.7-2.2-2.8c-0.4-0.9-0.7-1.9-0.8-3.1H323.8z"/>
	</g>
</g>
<path class="st1" d="M437.2,29.4c-4.4-3-8.1-4-12.8-4c-6,0-11.1,2.1-15.3,6.4c-4.2,4.2-6.3,9.4-6.3,15.3c0,5.9,2.1,11.1,6.2,15.4
	c4.1,4.3,8.7,6.5,14.5,6.5c5.1,0,9.3-1.9,13.3-5.6V70h8c0,0,0-22.9,0-25.2c0-4.1-2-8.8-2.9-10.1c-0.8-1.2-2-2.6-2.8-3.4
	C438.3,30.5,437.6,29.7,437.2,29.4z M424.5,61.4c-3.8,0-6.9-1.4-9.6-4.2c-2.7-2.8-4-6.1-4-9.9c0-3.9,1.3-7.1,4-9.9
	c2.7-2.8,5.8-4.2,9.7-4.2c3.9,0,7,1.3,9.7,4.1c2.7,2.7,4,6,4,10.1c0,4.1-1.3,7.3-4,10.1C431.4,60.1,428.2,61.4,424.5,61.4z"/>
<path class="st3" d="M57.9,46h-32v12.3c0,2.3,2.2,3.7,4.4,3.7h27.6V46z"/>
<path class="st4" d="M66.9,56c0,2.2-1.8,4-4,4h-30c-2.2,0-4-1.8-4-4v-20c0-2.2,1.8-4,4-4h30c2.2,0,4,1.8,4,4V56z"/>
<path class="st5" d="M66.9,32h-27v10.2c0,2.3,2.2,3.8,4.5,3.8h22.5V32z"/>
<path class="st2" d="M76.9,39.9c0,2.2-2.2,4.1-4.4,4.1H47c-2.2,0-4.1-1.9-4.1-4.1V24.1c0-2.2,1.9-3.2,4.1-3.2h25.4
	c2.2,0,4.4,1,4.4,3.2V39.9z"/>
</svg>
